<svg width="180" height="180" viewBox="0 0 180 180" xmlns="http://www.w3.org/2000/svg">
  <rect width="180" height="180" rx="40" fill="#9fe870"/>
  <g transform="translate(58, 58)">
    <path d="M32 30 C32 30 18 12 8 16 C2 19 4 30 14 32 C22 33 30 32 32 30Z" fill="#0e0f0c"/>
    <path d="M32 30 C32 30 46 12 56 16 C62 19 60 30 50 32 C42 33 34 32 32 30Z" fill="#0e0f0c"/>
    <path d="M32 34 C32 34 20 38 16 48 C13 55 22 56 28 50 C31 47 32 40 32 34Z" fill="#0e0f0c" opacity="0.75"/>
    <path d="M32 34 C32 34 44 38 48 48 C51 55 42 56 36 50 C33 47 32 40 32 34Z" fill="#0e0f0c" opacity="0.75"/>
    <ellipse cx="32" cy="32" rx="2" ry="10" fill="#0e0f0c"/>
  </g>
</svg>