<svg width="64" height="64" viewBox="0 0 64 64" xmlns="http://www.w3.org/2000/svg">
  <rect width="64" height="64" rx="14" fill="#0e0f0c"/>
  <g transform="translate(0, 0)">
    <path d="M32 30 C32 30 18 12 8 16 C2 19 4 30 14 32 C22 33 30 32 32 30Z" fill="#9fe870"/>
    <path d="M32 30 C32 30 46 12 56 16 C62 19 60 30 50 32 C42 33 34 32 32 30Z" fill="#9fe870"/>
    <path d="M32 34 C32 34 20 38 16 48 C13 55 22 56 28 50 C31 47 32 40 32 34Z" fill="#9fe870" opacity="0.75"/>
    <path d="M32 34 C32 34 44 38 48 48 C51 55 42 56 36 50 C33 47 32 40 32 34Z" fill="#9fe870" opacity="0.75"/>
    <ellipse cx="32" cy="32" rx="2" ry="10" fill="#9fe870"/>
  </g>
</svg>